<svg xmlns="http://www.w3.org/2000/svg" width="96" height="96" fill-rule="evenodd"><path fill="#22bbbe" d="M47.823 3.717V.561C21.411.56 0 21.83 0 48.067s21.411 47.506 47.823 47.506v-3.156c-17.146-.015-33.49-9.9-40.839-26.492-9.927-22.414.315-48.58 22.879-58.442a44.734 44.734 0 0 1 17.96-3.766"/><path fill="#7dad41" d="M31.132 10.386L29.85 7.489C7.285 17.351-2.957 43.516 6.971 65.93s36.268 32.59 58.832 22.727l-1.284-2.896c-11.668 5.088-25.534 4.783-37.416-2.032C7.279 72.36.487 47.18 11.933 27.487a41.166 41.166 0 0 1 19.2-17.101"/><path fill="#f4b719" d="M66.962 15.139l1.585-2.728C48.723 1.041 23.375 7.79 11.929 27.481S7.277 72.354 27.1 83.723l1.59-2.735a38.21 38.21 0 0 1-8.602-6.76c-14.545-15.225-13.91-39.28 1.416-53.729C34.088 8.636 52.665 6.94 66.962 15.14"/><path fill="#e55824" d="M23.68 22.794l-2.185-2.287C6.168 34.956 5.527 59.003 20.072 74.228s38.76 15.855 54.086 1.407l-2.192-2.295c-8.172 7.69-19.917 11.342-31.733 8.739-18.91-4.164-30.84-22.768-26.648-41.552A34.622 34.622 0 0 1 23.68 22.794"/><path fill="#b52c80" d="M54.724 17.149l.69-3.094c-18.91-4.164-37.637 7.687-41.83 26.472s7.74 37.388 26.649 41.552l.69-3.09-.005-.001C23.725 75.2 12.879 58.288 16.69 41.212s20.837-27.85 38.027-24.065l.007.002"/><path d="M71.242 52.89h8.073c.172-1.117.284-2.253.336-3.405l-8.41.041v3.364zm0-9.748v3.25l8.394-.042a31.7 31.7 0 0 0-.337-3.208h-8.057zm-3.524 12.882V40.008H78.64C75.05 26.42 62.605 16.397 47.8 16.397c-17.608 0-31.883 14.18-31.883 31.67s14.275 31.671 31.882 31.671c14.842 0 27.314-10.074 30.867-23.714h-10.95zm16.089-2.189l1.745-2.03c1.285 1.185 2.64 1.915 4.131 1.915 1.928 0 3.19-1.094 3.19-2.759v-.045c0-1.619-1.377-2.645-3.328-2.645-1.148 0-2.134.32-2.96.707l-1.7-1.118.46-7.82h9.594v2.485h-7.161l-.253 3.74c.758-.274 1.47-.457 2.548-.457 3.121 0 5.577 1.642 5.577 5.016v.046c0 3.26-2.387 5.404-5.944 5.404-2.456 0-4.384-.98-5.9-2.44" fill="#fefefe"/><path fill="#020303" d="M63.448 43.142h-8.753v3.25h8.753v3.134h-8.753v3.364h8.753v3.134H51.17V40.008h12.277zm-15.985-.457l-8.869 10.25h8.869v3.09h-13.43v-2.678l8.868-10.25h-8.59v-3.089h13.152zm32.175 3.665h-.117l-8.28.041v-3.249h8.061a31.279 31.279 0 0 0-.66-3.135H67.719v16.017H78.67a31.13 31.13 0 0 0 .648-3.134h-8.075v-3.364l8.297-.04.112-.001h.001a31.91 31.91 0 0 0-.014-3.134"/></svg>
